<?xml version="1.0" encoding="utf-8"?>
<!-- Generator: Adobe Illustrator 28.1.0, SVG Export Plug-In . SVG Version: 6.00 Build 0)  -->
<svg version="1.1" id="Layer_1" xmlns="http://www.w3.org/2000/svg" xmlns:xlink="http://www.w3.org/1999/xlink" x="0px" y="0px"
	 viewBox="0 0 600 600" enable-background="new 0 0 600 600" xml:space="preserve">
<rect x="37.47" y="223.76" opacity="0.5" fill="#212529" width="524.64" height="149.62"/>
<path fill="#212529" d="M542.82-0.53H57.18C25.6-0.53,0,25.07,0,56.65v485.64c0,31.58,25.6,57.18,57.18,57.18h485.64
	c31.58,0,57.18-25.6,57.18-57.18V56.65C600,25.07,574.4-0.53,542.82-0.53z M562.11,68.76v117.73H411.8V37.42h118.98
	C548.08,37.42,562.11,51.45,562.11,68.76z M225.1,373.38V223.76h149.43v149.62H225.1z M374.52,410.66v151.4H225.1v-151.4H374.52z
	 M187.82,373.38H37.47V223.76h150.35V373.38z M225.1,186.48V37.42h149.43v149.06H225.1z M411.8,223.76h150.31v149.62H411.8V223.76z
	 M68.8,37.42h119.02v149.06H37.47V68.76C37.47,51.45,51.5,37.42,68.8,37.42z M37.47,530.73V410.66h150.35v151.4H68.8
	C51.5,562.06,37.47,548.04,37.47,530.73z M530.78,562.06H411.8v-151.4h150.31v120.07C562.11,548.04,548.08,562.06,530.78,562.06z"/>
<rect x="37.83" y="224.13" transform="matrix(6.123234e-17 -1 1 6.123234e-17 -186.3028 411.5905)" opacity="0.5" fill="#212529" width="149.62" height="149.62"/>
</svg>
