<?xml version="1.0" encoding="utf-8"?>
<!-- Generator: Adobe Illustrator 28.1.0, SVG Export Plug-In . SVG Version: 6.00 Build 0)  -->
<svg version="1.1" id="Layer_1" xmlns="http://www.w3.org/2000/svg" xmlns:xlink="http://www.w3.org/1999/xlink" x="0px" y="0px"
	 viewBox="0 0 600 600" enable-background="new 0 0 600 600" xml:space="preserve">
<path fill="#212529" d="M542.46-2.84H56.82c-31.58,0-57.18,25.6-57.18,57.18v485.64c0,31.58,25.6,57.18,57.18,57.18h485.64
	c31.58,0,57.18-25.6,57.18-57.18V54.34C599.64,22.76,574.04-2.84,542.46-2.84z M561.75,66.45v117.73H411.44V35.11h118.98
	C547.72,35.11,561.75,49.14,561.75,66.45z M224.74,371.08V221.45h149.43v149.62H224.74z M374.16,408.35v151.4H224.74v-151.4H374.16z
	 M187.46,371.08H37.11V221.45h150.35V371.08z M224.74,184.18V35.11h149.43v149.06H224.74z M411.44,221.45h150.31v149.62H411.44
	V221.45z M68.44,35.11h119.02v149.06H37.11V66.45C37.11,49.14,51.14,35.11,68.44,35.11z M37.11,528.42V408.35h150.35v151.4H68.44
	C51.14,559.76,37.11,545.73,37.11,528.42z M530.42,559.76H411.44v-151.4h150.31v120.07C561.75,545.73,547.72,559.76,530.42,559.76z"
	/>
<rect x="35.89" y="223.14" transform="matrix(6.123234e-17 -1 1 6.123234e-17 2.05 597.95)" opacity="0.5" fill="#212529" width="528.23" height="149.62"/>
<rect x="225.19" y="35.14" transform="matrix(6.123234e-17 -1 1 6.123234e-17 190.0475 409.9525)" opacity="0.5" fill="#212529" width="149.62" height="149.62"/>
</svg>
