<?xml version="1.0" encoding="utf-8"?>
<!-- Generator: Adobe Illustrator 28.1.0, SVG Export Plug-In . SVG Version: 6.00 Build 0)  -->
<svg version="1.1" id="Layer_1" xmlns="http://www.w3.org/2000/svg" xmlns:xlink="http://www.w3.org/1999/xlink" x="0px" y="0px"
	 viewBox="0 0 600 600" enable-background="new 0 0 600 600" xml:space="preserve">
<path fill="#212529" d="M542.63-1.43H56.99c-31.58,0-57.18,25.6-57.18,57.18v485.64c0,31.58,25.6,57.18,57.18,57.18h485.64
	c31.58,0,57.18-25.6,57.18-57.18V55.75C599.81,24.17,574.21-1.43,542.63-1.43z M561.92,67.86v117.73H411.61V36.53h118.98
	C547.89,36.53,561.92,50.56,561.92,67.86z M224.91,372.49V222.87h149.43v149.62H224.91z M374.33,409.77v151.4H224.91v-151.4H374.33z
	 M187.63,372.49H37.28V222.87h150.35V372.49z M224.91,185.59V36.53h149.43v149.06H224.91z M411.61,222.87h150.31v149.62H411.61
	V222.87z M68.61,36.53h119.02v149.06H37.28V67.86C37.28,50.56,51.31,36.53,68.61,36.53z M37.28,529.84V409.77h150.35v151.4H68.61
	C51.31,561.17,37.28,547.14,37.28,529.84z M530.59,561.17H411.61v-151.4h150.31v120.07C561.92,547.14,547.89,561.17,530.59,561.17z"
	/>
<rect x="37.3" y="222.45" opacity="0.5" fill="#212529" width="524.64" height="149.62"/>
<rect x="35.51" y="224.65" transform="matrix(6.123234e-17 -1 1 6.123234e-17 0.1538 599.0856)" opacity="0.5" fill="#212529" width="528.23" height="149.62"/>
</svg>
