<?xml version="1.0" encoding="utf-8"?>
<!-- Generator: Adobe Illustrator 28.1.0, SVG Export Plug-In . SVG Version: 6.00 Build 0)  -->
<svg version="1.1" id="Layer_1" xmlns="http://www.w3.org/2000/svg" xmlns:xlink="http://www.w3.org/1999/xlink" x="0px" y="0px"
	 viewBox="0 0 600 600" enable-background="new 0 0 600 600" xml:space="preserve">
<g>
	<path fill="#212529" d="M466.53,259.98h-14.6v-46.27c0-88.08-71.41-159.49-159.49-159.49h0c-88.08,0-159.49,71.4-159.49,159.49
		v46.27h-20.36c-20.82,0-37.7,16.88-37.7,37.7v264.08c0,20.82,16.88,37.7,37.7,37.7h353.94c20.82,0,37.7-16.88,37.7-37.7V297.69
		C504.23,276.86,487.35,259.98,466.53,259.98z M176.22,206.87c0-64.22,52.06-116.28,116.28-116.28h0
		c64.22,0,116.28,52.06,116.28,116.28v53.02c0.02-0.03,0.03-0.06,0.05-0.08c0.01,0.06,0.02,0.12,0.03,0.18H176.22V206.87z
		 M463.82,544.13c0,10.66-8.64,19.3-19.3,19.3H133.75c-10.66,0-19.3-8.64-19.3-19.3V317.15c0-10.66,8.64-19.3,19.3-19.3h310.76
		c10.66,0,19.3,8.64,19.3,19.3V544.13z"/>
	<path fill="#212529" d="M292.44,359.98c-24.05,0-43.55,19.5-43.55,43.55c0,15.95,8.57,29.88,21.36,37.47v43.19
		c0,12.26,9.93,22.19,22.19,22.19c12.26,0,22.19-9.93,22.19-22.19V441c12.78-7.59,21.36-21.52,21.36-37.47
		C335.99,379.47,316.49,359.98,292.44,359.98z"/>
</g>
</svg>
