<?xml version="1.0" encoding="utf-8"?>
<!-- Generator: Adobe Illustrator 28.1.0, SVG Export Plug-In . SVG Version: 6.00 Build 0)  -->
<svg version="1.1" id="Layer_1" xmlns="http://www.w3.org/2000/svg" xmlns:xlink="http://www.w3.org/1999/xlink" x="0px" y="0px"
	 viewBox="0 0 600 600" enable-background="new 0 0 600 600" xml:space="preserve">
<path opacity="0.5" fill="#212529" d="M557.51,153.65H196.67c-23.47,0-42.49,19.02-42.49,42.49v360.84
	c0,23.47,19.02,42.49,42.49,42.49h360.84c23.47,0,42.49-19.02,42.49-42.49V196.14C600,172.67,580.98,153.65,557.51,153.65z"/>
<path fill="#212529" d="M403.33-0.53H42.49C19.02-0.53,0,18.49,0,41.95v360.84c0,23.47,19.02,42.49,42.49,42.49h53.55
	c-0.13-0.08-0.27-0.15-0.4-0.24c9.96-1.4,17.54-9.25,18.42-18.41c0.98-10.26-6.65-20.27-17.73-22.31H63
	c-12.17,0-22.04-9.87-22.04-22.04V62.46c0-12.17,9.87-22.04,22.04-22.04h319.82c12.17,0,22.04,9.87,22.04,22.04v33.35
	c0.03-0.05,0.06-0.09,0.08-0.14c1.41,11.84,11.85,20.14,22.54,19.12c9.02-0.86,16.75-8.22,18.33-17.95v-54.9
	C445.82,18.49,426.79-0.53,403.33-0.53z"/>
</svg>
