<?xml version="1.0" encoding="utf-8"?>
<!-- Generator: Adobe Illustrator 28.1.0, SVG Export Plug-In . SVG Version: 6.00 Build 0)  -->
<svg version="1.1" id="Layer_1" xmlns="http://www.w3.org/2000/svg" xmlns:xlink="http://www.w3.org/1999/xlink" x="0px" y="0px"
	 viewBox="0 0 600 600" enable-background="new 0 0 600 600" xml:space="preserve">
<g>
	<path fill="#212529" d="M120.07,426.87c1.02-10.69-7.29-21.13-19.12-22.54H62.46c-12.17,0-22.04-9.87-22.04-22.04V62.46
		c0-12.17,9.87-22.04,22.04-22.04h319.82c12.17,0,22.04,9.87,22.04,22.04v33.35c0.03-0.05,0.06-0.09,0.08-0.14
		c1.41,11.84,11.85,20.14,22.54,19.12c9.02-0.86,16.75-8.22,18.33-17.95v-54.9c0-23.47-19.02-42.49-42.49-42.49H41.95
		c-23.47,0-42.49,19.02-42.49,42.49v360.84c0,23.47,19.02,42.49,42.49,42.49h59.7C111.61,443.88,119.2,436.03,120.07,426.87z"/>
	<path fill="#212529" d="M404.32,178.58v0.13c0.03-0.02,0.06-0.05,0.08-0.07C404.38,178.62,404.35,178.6,404.32,178.58z"/>
	<path fill="#212529" d="M426.95,240.34c-10.69-1.02-21.13,7.29-22.54,19.12c-0.03-0.04-0.06-0.08-0.08-0.12v122.94
		c0,12.17-9.87,22.04-22.04,22.04H264.73c-11.84,1.41-20.14,11.85-19.12,22.54c0.87,9.17,8.46,17.01,18.42,18.41h138.77
		c23.47,0,42.49-19.02,42.49-42.49v-144.5C443.7,248.57,435.97,241.2,426.95,240.34z"/>
</g>
<path fill="#212529" d="M377.63,153.65c-123.11,0-222.91,99.8-222.91,222.91s99.8,222.91,222.91,222.91s222.91-99.8,222.91-222.91
	S500.73,153.65,377.63,153.65z M377.36,557.97c-100.34,0-181.68-81.34-181.68-181.68c0-100.34,81.34-181.68,181.68-181.68
	c100.34,0,181.68,81.34,181.68,181.68C559.04,476.63,477.7,557.97,377.36,557.97z"/>
</svg>
